<svg width="37" height="37" viewBox="0 0 37 37" fill="none" xmlns="http://www.w3.org/2000/svg">
<path opacity="0.35" fill-rule="evenodd" clip-rule="evenodd" d="M18.25 35.75C27.915 35.75 35.75 27.915 35.75 18.25C35.75 8.58502 27.915 0.75 18.25 0.75C8.58502 0.75 0.75 8.58502 0.75 18.25C0.75 27.915 8.58502 35.75 18.25 35.75Z" stroke="#222325" stroke-width="1.5"/>
<path d="M23.7507 9.4165H21.2507C20.1456 9.4165 19.0858 9.85549 18.3044 10.6369C17.523 11.4183 17.084 12.4781 17.084 13.5832V16.0832H14.584V19.4165H17.084V26.0832H20.4173V19.4165H22.9173L23.7507 16.0832H20.4173V13.5832C20.4173 13.3622 20.5051 13.1502 20.6614 12.9939C20.8177 12.8376 21.0296 12.7498 21.2507 12.7498H23.7507V9.4165Z" fill="#222325"/>
</svg>
