<svg width="37" height="37" viewBox="0 0 37 37" fill="none" xmlns="http://www.w3.org/2000/svg">
<path opacity="0.35" fill-rule="evenodd" clip-rule="evenodd" d="M18.25 35.75C27.915 35.75 35.75 27.915 35.75 18.25C35.75 8.58502 27.915 0.75 18.25 0.75C8.58502 0.75 0.75 8.58502 0.75 18.25C0.75 27.915 8.58502 35.75 18.25 35.75Z" stroke="#222325" stroke-width="1.5"/>
<g clip-path="url(#clip0_31566_408)">
<path d="M22.916 10.4165H14.5827C12.2815 10.4165 10.416 12.282 10.416 14.5832V22.9165C10.416 25.2177 12.2815 27.0832 14.5827 27.0832H22.916C25.2172 27.0832 27.0827 25.2177 27.0827 22.9165V14.5832C27.0827 12.282 25.2172 10.4165 22.916 10.4165Z" stroke="#222325" stroke-width="2" stroke-linecap="round" stroke-linejoin="round"/>
<path d="M22.0837 18.2248C22.1866 18.9183 22.0681 19.6266 21.7452 20.2489C21.4223 20.8713 20.9114 21.3759 20.2851 21.6912C19.6588 22.0064 18.9491 22.1161 18.2569 22.0047C17.5647 21.8933 16.9252 21.5665 16.4294 21.0707C15.9337 20.575 15.6069 19.9355 15.4955 19.2433C15.3841 18.5511 15.4938 17.8413 15.809 17.2151C16.1242 16.5888 16.6289 16.0779 17.2512 15.755C17.8736 15.432 18.5819 15.3136 19.2754 15.4164C19.9828 15.5213 20.6378 15.851 21.1435 16.3567C21.6492 16.8624 21.9788 17.5173 22.0837 18.2248Z" stroke="#222325" stroke-width="2" stroke-linecap="round" stroke-linejoin="round"/>
<path d="M23.334 14.1665H23.3423" stroke="#222325" stroke-width="2" stroke-linecap="round" stroke-linejoin="round"/>
</g>
<defs>
<clipPath id="clip0_31566_408">
<rect width="20" height="20" fill="white" transform="translate(8.75 8.75)"/>
</clipPath>
</defs>
</svg>
