<svg width="37" height="37" viewBox="0 0 37 37" fill="none" xmlns="http://www.w3.org/2000/svg">
<path opacity="0.35" fill-rule="evenodd" clip-rule="evenodd" d="M18.25 35.75C27.915 35.75 35.75 27.915 35.75 18.25C35.75 8.58502 27.915 0.75 18.25 0.75C8.58502 0.75 0.75 8.58502 0.75 18.25C0.75 27.915 8.58502 35.75 18.25 35.75Z" stroke="#222325" stroke-width="1.5"/>
<path d="M22.084 14.4165C23.4101 14.4165 24.6818 14.9433 25.6195 15.881C26.5572 16.8187 27.084 18.0904 27.084 19.4165V25.2498H23.7507V19.4165C23.7507 18.9745 23.5751 18.5506 23.2625 18.238C22.9499 17.9254 22.526 17.7498 22.084 17.7498C21.642 17.7498 21.218 17.9254 20.9055 18.238C20.5929 18.5506 20.4173 18.9745 20.4173 19.4165V25.2498H17.084V19.4165C17.084 18.0904 17.6108 16.8187 18.5485 15.881C19.4861 14.9433 20.7579 14.4165 22.084 14.4165Z" fill="#222325"/>
<path d="M13.7493 15.25H10.416V25.25H13.7493V15.25Z" fill="#222325"/>
<path d="M12.0827 12.7498C13.0032 12.7498 13.7493 12.0036 13.7493 11.0832C13.7493 10.1627 13.0032 9.4165 12.0827 9.4165C11.1622 9.4165 10.416 10.1627 10.416 11.0832C10.416 12.0036 11.1622 12.7498 12.0827 12.7498Z" fill="#222325"/>
</svg>
