<svg width="37" height="37" viewBox="0 0 37 37" fill="none" xmlns="http://www.w3.org/2000/svg">
<path opacity="0.35" fill-rule="evenodd" clip-rule="evenodd" d="M18.25 35.75C27.915 35.75 35.75 27.915 35.75 18.25C35.75 8.58502 27.915 0.75 18.25 0.75C8.58502 0.75 0.75 8.58502 0.75 18.25C0.75 27.915 8.58502 35.75 18.25 35.75Z" stroke="#222325" stroke-width="1.5"/>
<g clip-path="url(#clip0_31566_417)">
<path d="M27.9154 11.2501C27.1174 11.813 26.2338 12.2435 25.2987 12.5251C24.7968 11.948 24.1298 11.539 23.3879 11.3534C22.646 11.1677 21.8649 11.2144 21.1504 11.4871C20.4359 11.7598 19.8224 12.2454 19.3929 12.8782C18.9633 13.5109 18.7384 14.2604 18.7487 15.0251V15.8584C17.2842 15.8964 15.8331 15.5716 14.5245 14.913C13.216 14.2543 12.0906 13.2823 11.2487 12.0834C11.2487 12.0834 7.91536 19.5834 15.4154 22.9167C13.6991 24.0817 11.6547 24.6659 9.58203 24.5834C17.082 28.7501 26.2487 24.5834 26.2487 15.0001C26.2479 14.768 26.2256 14.5364 26.182 14.3084C27.0325 13.4697 27.6327 12.4107 27.9154 11.2501V11.2501Z" stroke="#222325" stroke-width="2" stroke-linecap="round" stroke-linejoin="round"/>
</g>
<defs>
<clipPath id="clip0_31566_417">
<rect width="20" height="20" fill="white" transform="translate(8.75 8.75)"/>
</clipPath>
</defs>
</svg>
